<?xml version="1.0" encoding="utf-8"?>
<!-- Svg Vector Icons : http://www.onlinewebfonts.com/icon -->
<!DOCTYPE svg PUBLIC "-//W3C//DTD SVG 1.1//EN" "http://www.w3.org/Graphics/SVG/1.1/DTD/svg11.dtd">
<svg version="1.1" xmlns="http://www.w3.org/2000/svg" xmlns:xlink="http://www.w3.org/1999/xlink" x="0px" y="0px" viewBox="0 0 256 256" enable-background="new 0 0 256 256" xml:space="preserve">
<metadata> Svg Vector Icons : http://www.onlinewebfonts.com/icon </metadata>
<g><g><path fill="#000000" d="M246,142.3V112l-16.9-6.7c-6.7-1.7-11.8-6.7-15.2-13.5l0,0c-3.4-6.7-1.7-13.5,0-20.2l8.4-16.9l-21.9-21.9l-16.9,8.4c-6.7,3.4-13.5,3.4-20.2,0l0,0c-6.7-3.4-11.8-8.4-13.5-15.2l-6.7-16.9h-30.3L106.1,26c-1.7,6.7-6.7,11.8-13.5,15.2l0,0c-6.7,1.7-13.5,1.7-20.2-1.7l-16.9-8.4L33.6,54.7L42,71.5c1.7,6.7,1.7,13.5,0,20.2l0,0c-3.4,6.7-8.4,11.8-15.2,13.5L10,112v32l16.9,6.7c6.7,1.7,11.8,6.7,15.2,13.5l0,0c3.4,6.7,1.7,13.5,0,20.2l-8.4,16.9l21.9,21.9l16.9-8.4c6.7-3.4,13.5-3.4,20.2,0l0,0c6.7,3.4,11.8,8.4,13.5,15.2l6.7,16.9h32l6.7-16.9c1.7-6.7,6.7-11.8,13.5-15.2l0,0c6.7-3.4,13.5-1.7,20.2,0l16.9,8.4l21.9-21.9l-8.4-16.9c-3.4-6.7-3.4-13.5,0-20.2l0,0c3.4-6.7,8.4-11.8,15.2-13.5L246,142.3L246,142.3z M128,177.7c-28.7,0-50.6-21.9-50.6-50.6S99.3,76.6,128,76.6c28.7,0,50.6,21.9,50.6,50.6S156.7,177.7,128,177.7z"/></g></g>
</svg>